<?xml version="1.0" encoding="UTF-8"?>
<svg xmlns="http://www.w3.org/2000/svg" viewBox="0 0 48 48">
    <path fill="#FF9900" d="M24.71,21.71c-4.54,3.05-11.1,4.69-16.76,4.69c-7.9,0-15.08-2.92-20.45-7.79c-0.42-0.38-0.04-0.91,0.46-0.61c5.82,3.39,13.03,5.44,20.48,5.44c5.02,0,10.54-1.04,15.62-3.19C25.03,19.85,25.74,21.1,24.71,21.71z"/>
    <path fill="#FF9900" d="M26.42,19.76c-0.58-0.74-3.84-0.35-5.3-0.18c-0.44,0.05-0.51-0.33-0.11-0.61c2.59-1.82,6.84-1.29,7.34-0.68c0.5,0.61-0.13,4.81-2.53,6.82c-0.37,0.31-0.72,0.14-0.56-0.26C25.79,23.51,27,20.5,26.42,19.76z"/>
    <path fill="#232F3E" d="M22.23,12.23c0,1.71,0.04,3.13-0.82,4.65c-0.69,1.23-1.79,1.98-3.01,1.98c-1.67,0-2.64-1.27-2.64-3.14c0-3.7,3.32-4.37,6.47-4.37V12.23z M25.93,21.62c-0.2,0.18-0.49,0.19-0.72,0.07c-1.01-0.84-1.19-1.23-1.74-2.03c-1.66,1.7-2.84,2.21-5,2.21c-2.55,0-4.54-1.58-4.54-4.73c0-2.46,1.33-4.14,3.23-4.96c1.64-0.72,3.94-0.85,5.7-1.05v-0.39c0-0.72,0.06-1.57-0.37-2.2c-0.37-0.56-1.08-0.79-1.71-0.79c-1.16,0-2.2,0.6-2.45,1.84c-0.05,0.27-0.25,0.53-0.52,0.54l-2.92-0.31c-0.25-0.05-0.52-0.24-0.45-0.59C15.12,4.32,19.24,3,22.91,3c1.87,0,4.31,0.5,5.78,1.92c1.87,1.75,1.69,4.08,1.69,6.61v5.98c0,1.8,0.75,2.59,1.45,3.57c0.25,0.35,0.3,0.77-0.01,1.03c-0.77,0.64-2.13,1.84-2.89,2.51L25.93,21.62z"/>
</svg> 