<?xml version="1.0" encoding="UTF-8"?>
<svg xmlns="http://www.w3.org/2000/svg" viewBox="0 0 48 48">
    <path fill="#000000" d="M35.42,27.23c-0.04-4.28,3.49-6.33,3.65-6.43c-1.99-2.91-5.08-3.31-6.18-3.35c-2.63-0.27-5.13,1.55-6.46,1.55 c-1.33,0-3.39-1.51-5.57-1.47c-2.87,0.04-5.51,1.67-6.98,4.23c-2.97,5.16-0.76,12.81,2.14,17c1.42,2.05,3.11,4.36,5.33,4.28 c2.14-0.09,2.95-1.38,5.53-1.38c2.58,0,3.31,1.38,5.57,1.34c2.3-0.04,3.76-2.09,5.17-4.15c1.63-2.38,2.3-4.68,2.34-4.8 C39.92,33.45,35.47,32.3,35.42,27.23z M31.47,14.18c1.18-1.43,1.97-3.42,1.75-5.4c-1.69,0.07-3.74,1.12-4.95,2.54 c-1.09,1.26-2.04,3.27-1.78,5.2C28.33,16.64,30.29,15.61,31.47,14.18z"/>
</svg> 