<?xml version="1.0" encoding="UTF-8"?>
<svg xmlns="http://www.w3.org/2000/svg" viewBox="0 0 48 48">
    <path fill="#002C8A" d="M35.68,19.95c0.18-1.17,0-1.97-0.61-2.69c-0.67-0.79-1.86-1.13-3.4-1.13h-4.47c-0.31,0-0.58,0.23-0.63,0.54 l-1.85,11.75c-0.04,0.23,0.14,0.44,0.37,0.44h2.87l0.72-4.57l-0.02,0.13c0.05-0.31,0.31-0.54,0.62-0.54h1.29 c2.54,0,4.53-1.03,5.11-4.02C35.7,19.83,35.69,19.89,35.68,19.95z"/>
    <path fill="#009BE1" d="M35.68,19.95c0.18-1.17,0-1.97-0.61-2.69c-0.67-0.79-1.86-1.13-3.4-1.13h-4.47c-0.31,0-0.58,0.23-0.63,0.54 l-1.85,11.75c-0.04,0.23,0.14,0.44,0.37,0.44h2.87l0.72-4.57l-0.02,0.13c0.05-0.31,0.31-0.54,0.62-0.54h1.29 c2.54,0,4.53-1.03,5.11-4.02C35.7,19.83,35.69,19.89,35.68,19.95z"/>
    <path fill="#001F6B" d="M23.38,19.95c0.18-1.17,0-1.97-0.61-2.69c-0.67-0.79-1.86-1.13-3.4-1.13h-4.47c-0.31,0-0.58,0.23-0.63,0.54 l-1.85,11.75c-0.04,0.23,0.14,0.44,0.37,0.44h2.87l0.72-4.57l-0.02,0.13c0.05-0.31,0.31-0.54,0.62-0.54h1.29 c2.54,0,4.53-1.03,5.11-4.02C23.4,19.83,23.39,19.89,23.38,19.95z"/>
</svg> 