<svg xmlns="http://www.w3.org/2000/svg" viewBox="0 0 800 1000">
  <defs>
    <pattern id="background" patternUnits="userSpaceOnUse" width="20" height="20">
      <rect width="20" height="20" fill="#4a1c1c"/>
      <path d="M0 10h20M10 0v20" stroke="#5a2424" stroke-width="0.5"/>
    </pattern>
    <pattern id="gold" patternUnits="userSpaceOnUse" width="10" height="10">
      <rect width="10" height="10" fill="#ffd700"/>
      <circle cx="5" cy="5" r="3" fill="#ffed4a"/>
    </pattern>
  </defs>
  
  <!-- Background with decorative elements -->
  <rect width="800" height="1000" fill="url(#background)"/>
  
  <!-- Decorative golden patterns -->
  <path d="M0 0h800v100h-800z M0 900h800v100h-800z" fill="url(#gold)"/>
  <path d="M700 0v1000 M100 0v1000" stroke="url(#gold)" stroke-width="20"/>
  
  <!-- Person silhouette -->
  <g transform="translate(200, 200)">
    <!-- White jacket -->
    <path d="M200 300 L150 600 L250 600 Z" fill="#ffffff"/>
    <rect x="150" y="300" width="100" height="200" fill="#ffffff"/>
    
    <!-- Face and features -->
    <circle cx="200" cy="200" r="80" fill="#e6b89c"/>
    <path d="M160 180 Q200 200 240 180" fill="none" stroke="#000000" stroke-width="3"/>
    <circle cx="180" cy="170" r="8" fill="#000000"/>
    <circle cx="220" cy="170" r="8" fill="#000000"/>
    
    <!-- Hair -->
    <path d="M120 160 Q200 100 280 160 V140 Q200 80 120 140 Z" fill="#000000"/>
  </g>
</svg>